<?xml version="1.0" standalone="no"?>
<!DOCTYPE svg PUBLIC "-//W3C//DTD SVG 20010904//EN"
 "http://www.w3.org/TR/2001/REC-SVG-20010904/DTD/svg10.dtd">
<svg version="1.0" xmlns="http://www.w3.org/2000/svg"
 width="800.000000pt" height="800.000000pt" viewBox="0 0 800.000000 800.000000"
 preserveAspectRatio="xMidYMid meet">
<metadata>
Created by potrace 1.11, written by Peter Selinger 2001-2013
</metadata>
<g transform="translate(0.000000,800.000000) scale(0.100000,-0.100000)"
fill="#000000" stroke="none">
<path d="M0 4000 l0 -4000 4000 0 4000 0 0 4000 0 4000 -4000 0 -4000 0 0
-4000z m2297 1460 c71 -31 126 -82 164 -152 32 -59 34 -69 34 -153 0 -71 -5
-100 -21 -136 -28 -61 -87 -124 -145 -157 -43 -25 -709 -647 -709 -663 0 -4
26 -43 59 -86 193 -257 393 -434 572 -508 94 -40 139 -73 179 -133 115 -174
51 -402 -139 -491 -47 -22 -69 -26 -141 -26 -73 1 -93 5 -143 30 -76 38 -140
109 -168 187 -42 114 -290 421 -445 550 -99 82 -201 148 -228 148 -36 0 -139
55 -179 96 -22 22 -51 62 -65 89 -24 44 -27 62 -27 145 0 83 3 101 27 145 32
62 88 118 151 155 27 15 208 179 402 363 323 307 354 340 369 385 40 119 128
203 243 232 55 13 156 4 210 -20z m-997 -131 c119 -54 177 -183 138 -311 -15
-51 -77 -121 -131 -147 -56 -27 -155 -28 -212 -2 -89 40 -147 131 -147 230 0
68 18 114 63 166 70 80 194 107 289 64z m2115 -533 c40 -17 65 -60 65 -112 0
-42 -106 -662 -121 -712 -6 -18 -22 -46 -36 -63 -49 -58 -54 -59 -383 -59
-282 0 -301 1 -296 18 3 9 39 213 81 452 41 239 78 447 81 463 l6 27 284 0
c223 0 292 -3 319 -14z m2025 11 c0 -9 -22 -124 -26 -139 -5 -16 -21 -18 -144
-18 -137 0 -140 0 -145 -22 -2 -13 -27 -147 -55 -298 -28 -151 -52 -285 -55
-297 l-5 -23 145 0 c80 0 145 -1 145 -3 0 -9 -22 -124 -26 -139 -5 -17 -25
-18 -241 -18 l-235 0 -34 34 c-30 30 -34 40 -34 87 0 75 108 686 129 734 22
48 58 83 97 95 26 7 484 14 484 7z m1523 -4 c3 -6 -147 -883 -162 -950 -1 -2
-62 -3 -137 -3 l-136 0 6 28 c3 15 40 223 81 462 42 239 78 443 81 453 5 15
20 17 134 17 71 0 131 -3 133 -7z m-2866 -198 c45 -31 45 -69 3 -313 -22 -125
-40 -230 -40 -234 0 -5 -81 -8 -180 -8 -103 0 -180 -4 -180 -9 0 -5 -3 -16 -6
-25 -5 -14 13 -16 168 -16 96 0 177 -2 180 -5 5 -5 -4 -66 -17 -122 l-5 -23
-255 0 c-140 0 -265 4 -279 10 -34 12 -66 66 -66 108 0 60 91 556 107 582 8
14 27 35 42 47 25 22 32 23 266 23 200 0 244 -3 262 -15z m386 -52 c4 -38 7
-104 8 -148 1 -44 4 -109 8 -145 l6 -64 84 212 85 212 72 0 72 0 -150 -372
c-82 -205 -152 -379 -155 -385 -4 -10 -40 -13 -134 -13 -125 0 -129 1 -133 23
-3 12 -10 144 -16 292 -5 149 -13 312 -17 363 l-6 92 135 0 135 0 6 -67z
m1227 50 c0 -10 -23 -146 -50 -303 -28 -156 -50 -288 -50 -293 0 -4 19 -7 42
-5 l43 3 42 240 c23 132 47 270 53 308 l12 67 134 0 c74 0 134 -3 134 -8 0 -4
-32 -189 -70 -412 -76 -435 -85 -464 -149 -507 -33 -22 -42 -23 -244 -23
l-209 0 7 48 c14 100 2 92 135 92 109 0 118 1 123 20 5 19 0 20 -123 20 -123
0 -130 1 -159 26 -49 41 -53 77 -26 233 13 75 38 220 56 324 l33 187 133 0
c120 0 133 -2 133 -17z m905 -40 c-11 -88 -4 -83 -129 -83 l-111 0 -39 -217
c-21 -120 -40 -228 -43 -240 -5 -23 -4 -23 107 -23 l113 0 -7 -52 c-4 -29 -10
-63 -13 -76 l-5 -23 -204 3 -204 3 -26 27 c-43 42 -42 91 10 381 26 142 53
271 61 287 8 16 27 38 41 49 25 20 39 21 242 21 l214 0 -7 -57z m942 42 c47
-33 47 -65 4 -315 -23 -127 -41 -233 -41 -235 0 -3 -80 -5 -179 -5 l-179 0 -4
-25 -5 -25 172 0 c94 0 174 -2 177 -5 2 -3 0 -35 -6 -73 l-11 -67 -274 0 -273
0 -23 28 c-13 15 -27 43 -31 63 -8 43 79 551 103 602 32 68 49 72 313 72 193
0 239 -3 257 -15z m-7082 -143 c113 -58 169 -185 131 -299 -36 -108 -130 -177
-241 -176 -137 0 -240 96 -252 234 -10 101 50 197 152 246 61 29 148 27 210
-5z m1910 0 c113 -58 169 -185 131 -299 -36 -108 -130 -177 -241 -176 -137 0
-240 96 -252 234 -10 101 50 197 152 246 61 29 148 27 210 -5z m-1045 -968
c176 -96 171 -351 -8 -443 -167 -85 -366 36 -366 224 0 193 203 312 374 219z"/>
<path d="M3070 4643 c0 -10 -97 -566 -106 -605 l-6 -28 61 0 c34 0 61 2 61 4
0 6 99 572 106 609 l6 27 -61 0 c-34 0 -61 -3 -61 -7z"/>
<path d="M3775 4468 c-5 -16 -45 -243 -45 -258 0 -7 16 -10 42 -8 l42 3 23
125 c12 69 22 131 23 138 0 8 -14 12 -40 12 -24 0 -42 -5 -45 -12z"/>
<path d="M7235 4468 c-4 -15 -45 -250 -45 -262 0 -4 19 -6 42 -4 l43 3 22 120
c30 163 31 155 -17 155 -24 0 -42 -5 -45 -12z"/>
</g>
</svg>
